<?xml version="1.0" standalone="no"?><!DOCTYPE svg PUBLIC "-//W3C//DTD SVG 1.1//EN" "http://www.w3.org/Graphics/SVG/1.1/DTD/svg11.dtd"><svg t="1542466155262" class="icon" style="" viewBox="0 0 1024 1024" version="1.1" xmlns="http://www.w3.org/2000/svg" p-id="5604" xmlns:xlink="http://www.w3.org/1999/xlink" width="200" height="200"><defs><style type="text/css"></style></defs><path d="M880.932 64.997h-738.94c-5.986 0-10.849 4.864-10.849 10.853v856.858c94.707-99.635 113.46-99.635 122.956-99.635 34.69 0.494 58.009 37.809 80.547 73.884 10.681 17.084 32.9 52.648 42.865 52.874 11.231 0 35.383-34.943 48.372-53.716 25.967-37.566 50.496-73.047 85.145-73.047 34.913 0.612 58.613 37.314 81.52 72.81 11.697 18.108 33.442 51.791 43.927 52.422 13.608 0 40.041-31.8 57.534-52.847 30.587-36.804 60.215-71.597 95.49-68.8 10.776 0.843 23.96 1.878 102.29 101.895V75.85c-0.002-5.989-4.87-10.853-10.857-10.853zM743.448 654.564h-463.97c-19.15 0-34.68-15.542-34.68-34.68 0-19.173 15.53-34.682 34.68-34.682h463.969c19.153 0 34.683 15.508 34.683 34.682 0 19.137-15.53 34.68-34.682 34.68z m0-155.963h-463.97c-19.15 0-34.68-15.515-34.68-34.686 0-19.134 15.53-34.681 34.68-34.681h463.969c19.153 0 34.683 15.546 34.683 34.68 0 19.172-15.53 34.687-34.682 34.687z m0-155.929h-463.97c-19.15 0-34.68-15.548-34.68-34.681 0-19.172 15.53-34.686 34.68-34.686h463.969c19.153 0 34.683 15.514 34.683 34.686 0 19.133-15.53 34.682-34.682 34.682z" p-id="5605" fill="#F5A623"></path></svg>