<?xml version="1.0" standalone="no"?><!DOCTYPE svg PUBLIC "-//W3C//DTD SVG 1.1//EN" "http://www.w3.org/Graphics/SVG/1.1/DTD/svg11.dtd"><svg t="1542466279889" class="icon" style="" viewBox="0 0 1024 1024" version="1.1" xmlns="http://www.w3.org/2000/svg" p-id="6009" xmlns:xlink="http://www.w3.org/1999/xlink" width="200" height="200"><defs><style type="text/css"></style></defs><path d="M1020.019 330.988c0-153.798-124.669-278.476-278.465-278.476-88.589 0-167.392 41.465-218.367 105.943l-1.514 0.67c-47.225-47.033-100.639-74.597-149.47-90.844 0.223-0.132 0.416-0.325 0.641-0.458-28.347-9.794-58.666-15.323-90.367-15.323C128.669 52.512 3.981 177.179 3.981 330.987c0 28.368 4.318 55.719 12.192 81.517 0.051-0.07 0.132-0.142 0.212-0.212 22.089 79.251 67.476 128.995 81.648 141.239l63.766 61.002-3.739 3.83c-18.085 18.491-17.689 48.15 0.813 66.195 18.491 18.054 48.118 17.699 66.195-0.783l3.891-3.86c0.437-0.377 0.976-0.619 1.585-0.619a2.527 2.527 0 0 1 2.549 2.56c0 0.59-0.235 1.088-0.579 1.535l0.051 0.041-3.718 3.82c-18.095 18.493-17.699 48.15 0.802 66.175 18.501 18.085 48.129 17.74 66.205-0.793l3.658-3.597a2.49 2.49 0 0 1 1.91-0.914c1.433 0 2.56 1.117 2.56 2.549 0 0.619-0.243 1.168-0.63 1.605l0.011 0.019-0.061 0.061c-0.051 0.051-0.092 0.132-0.153 0.172l-3.526 3.597c-18.085 18.482-17.699 48.141 0.802 66.185 18.513 18.066 48.141 17.719 66.205-0.771l3.82-3.932 0.07 0.082c0.437-0.336 0.965-0.579 1.543-0.579a2.544 2.544 0 0 1 2.56 2.56c0 0.569-0.223 1.057-0.548 1.484l0.031 0.031-0.204 0.212c-0.031 0.041-0.061 0.061-0.092 0.112l-3.435 3.526c-18.085 18.491-17.699 48.141 0.802 66.195 18.501 18.066 48.15 17.709 66.205-0.802l4.409-4.511-1.249 1.616 62.242 59.255c16.765 15.931 38.679 24.71 61.745 24.71h1.189c24.385-0.336 47.072-10.252 63.878-27.91 16.297-17.162 25.025-40.53 24.253-64.63 0.976 0.041 2.001 0.082 3.231 0.041 24.334-0.285 46.971-10.191 63.777-27.85 16.236-17.079 24.832-39.372 24.405-63.198 1.077 0.031 2.448 0.07 3.658 0.07 24.355-0.325 47.042-10.233 63.847-27.89 16.329-17.182 25.056-40.53 24.273-64.641 0.976 0.041 2.317 0.092 3.211 0.061 24.355-0.315 47.012-10.233 63.797-27.89 30.868-32.371 32.493-82.035 5.934-116.53 64.835-51.012 110.028-131.36 110.028-220.143zM867.787 633.147c-7.193 7.559-17.669 11.888-28.774 11.888-10.434 0-20.107-3.73-27.199-10.485l-65.677-61.328c-4.165-3.068-9.286-4.938-14.876-4.938-13.93 0-25.238 11.329-25.238 25.279 0 8.046 3.851 15.17 9.763 19.793l59.296 56.228c15.809 15.069 16.449 40.185 1.412 55.995-7.193 7.59-17.679 11.929-28.785 11.929-10.414 0-20.087-3.718-27.189-10.496l-63.39-60.881-0.031 0.061c-4.511-4.114-10.464-6.715-17.049-6.715-13.93 0-25.248 11.329-25.248 25.298 0 6.726 2.683 12.812 6.991 17.364l-0.07 0.061 61.562 58.534c15.647 15.069 16.226 40.163 1.3 55.903-7.193 7.539-17.669 11.877-28.785 11.877-10.445 0-20.097-3.73-27.18-10.476l-62.578-59.062-0.041 0.051c-4.561-4.654-10.923-7.549-17.953-7.549-13.95 0-25.248 11.318-25.248 25.29 0 7.377 3.211 13.909 8.24 18.542l60.83 57.782c15.799 15.069 16.439 40.205 1.422 56.014-7.184 7.559-17.679 11.908-28.785 11.908-10.445 0-20.087-3.708-27.188-10.496l-61.957-58.961 3.708-3.779c18.085-18.513 17.689-48.18-0.822-66.236-18.491-18.066-48.11-17.699-66.214 0.783l-2.124 2.164-0.061-0.082a2.508 2.508 0 0 1-1.91 0.864 2.515 2.515 0 0 1-2.519-2.53c0-0.813 0.377-1.504 0.955-1.97l1.9-1.91c18.085-18.513 17.689-48.17-0.813-66.215-18.491-18.095-48.129-17.711-66.225 0.802l-2.214 2.266-0.051-0.041c-0.437 0.325-0.965 0.59-1.554 0.59a2.544 2.544 0 0 1-2.541-2.549c0-0.579 0.212-1.077 0.548-1.504l-0.041-0.041 0.212-0.212c0.031-0.041 0.051-0.082 0.082-0.101l1.84-1.89c18.076-18.523 17.699-48.16-0.822-66.236-18.501-18.054-48.11-17.689-66.225 0.793l-2.407 2.317c-0.458 0.619-1.158 1.046-1.991 1.046-1.402 0-2.541-1.158-2.541-2.549 0-0.802 0.396-1.494 0.976-1.941l2.236-2.306c18.054-18.513 17.689-48.16-0.834-66.236-18.491-18.066-48.11-17.679-66.215 0.813l-2.418 2.459-65.158-63.136c-0.641-0.559-48.486-42.613-70.686-133.974 0.172-0.061 0.336-0.153 0.508-0.212-3.628-16.053-5.721-32.686-5.721-49.817 0-124.729 101.461-226.19 226.211-226.19 18.564 0 36.537 2.499 53.819 6.756 0.011-0.019 0.011-0.041 0.019-0.051 44.289 12.173 94.858 34.454 139.625 75.349L245.629 414.869c-9.348 8.799-15.271 21.204-15.271 35.054 0 26.671 21.612 48.271 48.252 48.271 1.351 0 2.621-0.294 3.962-0.416 0.031 0.092 0.07 0.142 0.112 0.212 1.037-0.122 2.083-0.365 3.14-0.529 1.269-0.204 2.499-0.396 3.749-0.63 38.315-7.59 110.595-84.525 176.385-125.714 37.106-22.891 59.235-30.135 99.937-30.135 33.916 0 64.741 12.852 88.151 33.834 2.804 2.083 5.75 4.624 9.043 7.863l140.782 135.173-0.041 0.122 61.205 58.614c15.851 15.058 17.772 40.774 2.754 56.563z" fill="#FF6399" p-id="6010"></path></svg>