<?xml version="1.0" standalone="no"?><!DOCTYPE svg PUBLIC "-//W3C//DTD SVG 1.1//EN" "http://www.w3.org/Graphics/SVG/1.1/DTD/svg11.dtd"><svg t="1542465902335" class="icon" style="" viewBox="0 0 1024 1024" version="1.1" xmlns="http://www.w3.org/2000/svg" p-id="5229" xmlns:xlink="http://www.w3.org/1999/xlink" width="200" height="200"><defs><style type="text/css"></style></defs><path d="M428.655 168.967h159.192a50.053 50.053 0 0 0 44.938-27.762L703.745 0h-391.25l71.207 141.205a50.053 50.053 0 0 0 44.953 27.762z" p-id="5230" fill="#774FFF"></path><path d="M836.601 0h-71.48L681.77 165.882a104.602 104.602 0 0 1-93.936 57.908H428.655a104.602 104.602 0 0 1-93.923-57.908L251.106 0h-63.707A105.26 105.26 0 0 0 82.262 105.136v813.728A105.26 105.26 0 0 0 187.4 1024H836.6a105.26 105.26 0 0 0 105.137-105.136V105.136A105.26 105.26 0 0 0 836.6 0zM569.93 654.426H282.034a27.419 27.419 0 0 1 0-54.837h287.895a27.419 27.419 0 0 1 0 54.837z m164.51-171.366H282.035a27.419 27.419 0 0 1 0-54.837H734.44a27.419 27.419 0 0 1 0 54.837z" p-id="5231" fill="#774FFF"></path></svg>