<?xml version="1.0" standalone="no"?><!DOCTYPE svg PUBLIC "-//W3C//DTD SVG 1.1//EN" "http://www.w3.org/Graphics/SVG/1.1/DTD/svg11.dtd"><svg t="1542466323987" class="icon" style="" viewBox="0 0 1024 1024" version="1.1" xmlns="http://www.w3.org/2000/svg" p-id="6217" xmlns:xlink="http://www.w3.org/1999/xlink" width="200" height="200"><defs><style type="text/css"></style></defs><path d="M889.301451 92.632562L514.900044 199.600592 140.497614 92.632562c-35.181197-10.054987-64.766966 11.602222-64.766967 48.742023v541.139609c0 36.475677 27.680377 79.1229 61.83213 93.75615l349.287477 149.698141c10.038614 4.296854 19.592181 5.710037 28.04979 4.590543 8.454539 1.119495 18.010153-0.293688 28.048767-4.590543l349.2885-149.698141c34.15073-14.633249 61.83213-57.28252 61.83213-93.75615V141.374585c0-37.139801-29.583723-58.79701-64.76799-48.742023z m-60.511044 418.890578l-201.766927 67.954559c-17.675533 5.953584-36.836903-3.546772-42.796626-21.229468-5.953584-17.681672 3.558029-36.845089 21.241747-42.796626l201.75874-67.956606c17.681672-5.95256 36.845089 3.552912 42.796627 21.235608 5.959723 17.676556-3.551889 36.837926-21.233561 42.792533z m0 135.128337l-201.766927 67.954559c-17.675533 5.953584-36.836903-3.547795-42.796626-21.229468-5.953584-17.682696 3.558029-36.843043 21.241747-42.79765l201.75874-67.953535c17.681672-5.954607 36.845089 3.557005 42.796627 21.240724 5.959723 17.669393-3.551889 36.831786-21.233561 42.78537z m0-270.257697L627.02348 444.349362c-17.675533 5.95256-36.836903-3.552912-42.796626-21.229468-5.953584-17.684742 3.558029-36.845089 21.241747-42.798672l201.75874-67.955583c17.681672-5.953584 36.845089 3.552912 42.796627 21.235608 5.959723 17.677579-3.551889 36.837926-21.233561 42.792533zM391.637942 588.829676l-79.430915-41.751833-79.431938 41.751833 15.170484-88.434968-64.255314-62.644634 88.801311-12.900796 39.715457-80.464452 39.714434 80.464452 88.801312 12.900796-64.255315 62.644634 15.170484 88.434968z" p-id="6218" fill="#4FB0FF"></path></svg>