<?xml version="1.0" standalone="no"?><!DOCTYPE svg PUBLIC "-//W3C//DTD SVG 1.1//EN" "http://www.w3.org/Graphics/SVG/1.1/DTD/svg11.dtd"><svg t="1542466218271" class="icon" style="" viewBox="0 0 1024 1024" version="1.1" xmlns="http://www.w3.org/2000/svg" p-id="5806" xmlns:xlink="http://www.w3.org/1999/xlink" width="200" height="200"><defs><style type="text/css"></style></defs><path d="M1024 170.666667v284.444444c0 28.444444-28.444444 56.888889-56.888889 56.888889s-56.888889-28.444444-56.888889-56.888889V170.666667c0-28.444444-28.444444-56.888889-56.888889-56.888889h-56.888889c-28.444444 0-56.888889-28.444444-56.888888-56.888889s28.444444-56.888889 56.888888-56.888889h56.888889c96.711111 0 170.666667 73.955556 170.666667 170.666667zM512 967.111111c0 28.444444-28.444444 56.888889-56.888889 56.888889H170.666667c-96.711111 0-170.666667-79.644444-170.666667-170.666667V170.666667c0-96.711111 73.955556-170.666667 170.666667-170.666667h56.888889c28.444444 0 56.888889 28.444444 56.888888 56.888889s-28.444444 56.888889-56.888888 56.888889H170.666667c-28.444444 0-56.888889 28.444444-56.888889 56.888889v682.666666c0 28.444444 28.444444 56.888889 56.888889 56.888889h284.444444c28.444444 0 56.888889 28.444444 56.888889 56.888889z" p-id="5807" fill="#3DE1CD"></path><path d="M568.888889 113.777778l56.888889 398.222222-113.777778 227.555556-113.777778-227.555556 56.888889-398.222222-56.888889-113.777778h227.555556zM1024 796.444444c0 28.444444-28.444444 56.888889-56.888889 56.888889h-227.555555c-28.444444 0-56.888889-28.444444-56.888889-56.888889s28.444444-56.888889 56.888889-56.888888h227.555555c28.444444 0 56.888889 28.444444 56.888889 56.888888zM1024 625.777778c0 28.444444-28.444444 56.888889-56.888889 56.888889h-113.777778c-28.444444 0-56.888889-28.444444-56.888889-56.888889s28.444444-56.888889 56.888889-56.888889h113.777778c28.444444 0 56.888889 28.444444 56.888889 56.888889zM1024 967.111111c0 28.444444-28.444444 56.888889-56.888889 56.888889h-284.444444c-28.444444 0-56.888889-28.444444-56.888889-56.888889s28.444444-56.888889 56.888889-56.888889h284.444444c28.444444 0 56.888889 28.444444 56.888889 56.888889z" p-id="5808" fill="#3DE1CD"></path></svg>